<?xml version="1.0" encoding="UTF-8"?>
<svg xmlns="http://www.w3.org/2000/svg" xmlns:xlink="http://www.w3.org/1999/xlink" width="1660px" height="951px" viewBox="0 0 1660 951" version="1.1">
<g id="surface1">
<path style=" stroke:none;fill-rule:nonzero;fill:rgb(86.666667%,86.666667%,86.666667%);fill-opacity:1;" d="M 486.523438 -8.144531 C 494.042969 -8.144531 494.042969 -8.144531 501.730469 -8.234375 C 518.554688 -8.367188 535.351562 -8.027344 552.179688 -7.652344 C 564.335938 -7.550781 576.300781 -7.652344 588.457031 -7.652344 C 621.074219 -7.652344 653.914062 -7.308594 686.535156 -6.832031 C 720.773438 -6.375 755.039062 -6.375 789.277344 -6.289062 C 854.121094 -6.03125 918.769531 -5.449219 983.613281 -4.855469 C 1071.152344 -3.9375 1158.691406 -3.59375 1246.230469 -3.117188 C 1384.21875 -2.542969 1522.011719 -1.265625 1660 0 C 1660 313.78125 1660 627.6875 1660 951 C 1112.265625 951 564.335938 951 0 951 C 0 839.097656 0 839.097656 10.734375 807.632812 C 18.027344 795.574219 18.027344 795.574219 25.546875 783.117188 C 30.996094 773.953125 36.277344 764.800781 41.757812 755.253906 C 47.402344 745.96875 52.882812 736.804688 58.554688 727.171875 C 68.699219 708.269531 78.820312 689.101562 88.769531 669.9375 C 93.632812 660.644531 98.496094 651.363281 103.359375 641.730469 C 115.488281 618.644531 127.253906 595.429688 139.21875 571.964844 C 157.859375 535.058594 177.089844 498.929688 196.542969 462.957031 C 222.480469 414.664062 247.414062 365.453125 272.148438 315.417969 C 304.375 249.949219 337.996094 186.882812 372.238281 124.792969 C 375.898438 118.160156 379.53125 111.667969 383.191406 104.953125 C 386.433594 99.246094 389.453125 93.585938 392.695312 87.644531 C 404.882812 65.8125 404.882812 65.8125 417.433594 32.71875 C 437.082031 -7.550781 457.148438 -9.289062 486.523438 -8.144531 Z M 1406.101562 358.023438 C 1408.339844 372.75 1410.351562 387.484375 1412.585938 402.839844 C 1416.835938 387.980469 1421.308594 373.21875 1425.554688 358.023438 C 1419.269531 358.023438 1412.785156 358.023438 1406.101562 358.023438 Z M 1406.101562 358.023438 "/>
<path style=" stroke:none;fill-rule:nonzero;fill:rgb(7.058824%,7.058824%,7.058824%);fill-opacity:1;" d="M 1640.546875 0 C 1646.835938 0 1653.320312 0 1660 0 C 1660 313.78125 1660 627.6875 1660 951 C 1112.265625 951 564.335938 951 0 951 C 0 936.261719 0 921.503906 0 906.199219 C 4.863281 906.421875 9.726562 906.542969 14.785156 906.644531 C 37.089844 907.019531 59.367188 906.644531 81.863281 906.199219 C 89.550781 906.421875 97.070312 906.644531 105.175781 906.878906 C 146.90625 906.878906 146.90625 906.878906 183.574219 876.925781 C 195.339844 854.191406 205.066406 830.859375 214.792969 805.523438 C 220.859375 792.898438 227.148438 780.339844 233.4375 768.035156 C 236.289062 762.140625 239.308594 756.09375 242.355469 749.941406 C 280.058594 673.652344 318.964844 599.945312 358.875 526.910156 C 380.761719 486.421875 402.03125 444.84375 423.105469 402.839844 C 434.257812 380.773438 445.410156 358.828125 456.339844 336.785156 C 473.554688 302.882812 490.578125 268.867188 507.792969 234.972656 C 507.792969 274.675781 503.769531 281.984375 490.183594 313.3125 C 484.09375 328.046875 484.09375 328.046875 477.609375 343.164062 C 474.167969 351.855469 474.167969 351.855469 470.3125 360.5625 C 453.710938 401.082031 437.5 442.1875 421.09375 483.152344 C 417.433594 492.4375 413.769531 501.625 409.941406 511.011719 C 387.441406 567.773438 365.136719 624.691406 343.058594 681.796875 C 340.429688 688.511719 337.800781 695.273438 335.175781 702.105469 C 322.402344 734.824219 309.824219 767.707031 297.273438 800.671875 C 292.605469 812.835938 287.941406 825.152344 283.078125 837.695312 C 279.023438 848.496094 274.972656 859.394531 270.722656 870.539062 C 260.382812 895.054688 260.382812 895.054688 247.414062 906.199219 C 706.992188 906.199219 1166.796875 906.199219 1640.546875 906.199219 C 1640.546875 607.15625 1640.546875 308.109375 1640.546875 0 Z M 1640.546875 0 "/>
<path style=" stroke:none;fill-rule:nonzero;fill:rgb(3.921569%,3.921569%,3.921569%);fill-opacity:1;" d="M 1171.4375 298.585938 C 1189.269531 326.785156 1191.308594 335.972656 1197.375 379.035156 C 1197.597656 390.515625 1197.597656 402.140625 1197.792969 413.984375 C 1174.0625 413.984375 1150.585938 413.984375 1126.269531 413.984375 C 1123.027344 397.367188 1123.027344 397.367188 1119.785156 380.425781 C 1101.953125 370.21875 1091.386719 367.769531 1073.164062 367.769531 C 1067.910156 367.648438 1062.824219 367.648438 1057.34375 367.648438 C 1052.089844 367.769531 1046.613281 367.769531 1041.132812 367.769531 C 1035.683594 367.769531 1030.402344 367.769531 1024.726562 367.648438 C 1019.667969 367.648438 1014.609375 367.648438 1009.128906 367.769531 C 1004.464844 367.769531 999.824219 367.769531 994.960938 367.769531 C 982.382812 367.992188 982.382812 367.992188 970.027344 380.425781 C 972.042969 391.457031 974.277344 402.601562 976.511719 413.984375 C 982.773438 414.664062 982.773438 414.664062 989.257812 415.347656 C 1008.710938 417.460938 1028.164062 419.898438 1047.617188 422.351562 C 1054.324219 423.035156 1061.003906 423.714844 1067.910156 424.429688 C 1118.945312 431.144531 1168.808594 445.660156 1204.277344 514.628906 C 1214.589844 549.917969 1213.191406 576.398438 1210.761719 615.398438 C 1191.699219 670.988281 1169.199219 697.792969 1133.957031 719.414062 C 1072.550781 742.371094 1000.410156 744.234375 943.085938 695.941406 C 916.925781 666.9375 906.804688 641.03125 899.902344 589.519531 C 899.511719 579.515625 898.894531 569.636719 898.28125 559.429688 C 911.054688 558.164062 923.632812 557.347656 936.183594 556.628906 C 946.71875 555.828125 946.71875 555.828125 957.453125 555.023438 C 963.738281 556.511719 970.027344 557.941406 976.511719 559.429688 C 980.957031 570.449219 980.957031 570.449219 985.429688 581.71875 C 995.964844 609.234375 995.964844 609.234375 1020.898438 608.890625 C 1030.820312 608.777344 1040.742188 608.296875 1050.46875 607.597656 C 1055.527344 607.597656 1060.390625 607.5 1065.449219 607.375 C 1090.800781 606.457031 1114.503906 603.441406 1139.238281 592.976562 C 1139.238281 578.25 1139.238281 563.515625 1139.238281 548.160156 C 1134.960938 547.71875 1130.714844 547.136719 1126.464844 546.539062 C 1107.011719 543.878906 1087.558594 541.226562 1068.105469 538.429688 C 1061.425781 537.597656 1054.71875 536.671875 1047.839844 535.742188 C 936.378906 519.855469 936.378906 519.855469 910.664062 469.210938 C 896.269531 428.347656 894.84375 394.117188 899.902344 347.796875 C 908.425781 307.988281 922.597656 286.980469 943.867188 268.523438 C 1011.367188 223.488281 1112.460938 221.953125 1171.4375 298.585938 Z M 1171.4375 298.585938 "/>
<path style=" stroke:none;fill-rule:nonzero;fill:rgb(3.529412%,3.529412%,3.529412%);fill-opacity:1;" d="M 1249.863281 257.378906 C 1344.5 257.378906 1438.917969 257.378906 1536.40625 257.378906 C 1536.40625 294.277344 1536.40625 331.21875 1536.40625 369.167969 C 1518.351562 369.503906 1500.324219 369.75 1482.292969 369.847656 C 1474.582031 370.085938 1474.582031 370.085938 1466.699219 370.21875 C 1461.835938 370.21875 1456.75 370.34375 1451.691406 370.34375 C 1445.007812 370.429688 1445.007812 370.429688 1438.105469 370.429688 C 1425.554688 369.167969 1425.554688 369.167969 1406.101562 358.023438 C 1408.339844 369.035156 1410.351562 380.179688 1412.585938 391.570312 C 1416.835938 387.855469 1421.308594 384.265625 1425.554688 380.425781 C 1425.554688 491.164062 1425.554688 601.925781 1425.554688 716.027344 C 1404.0625 716.027344 1382.597656 716.027344 1360.488281 716.027344 C 1360.488281 601.582031 1360.488281 487.101562 1360.488281 369.167969 C 1324.042969 369.167969 1287.539062 369.167969 1249.863281 369.167969 C 1249.863281 332.257812 1249.863281 295.328125 1249.863281 257.378906 Z M 1249.863281 257.378906 "/>
<path style=" stroke:none;fill-rule:nonzero;fill:rgb(89.803922%,89.803922%,89.803922%);fill-opacity:1;" d="M 1009.550781 354.988281 C 1017.238281 354.988281 1017.238281 354.988281 1025.144531 354.988281 C 1033.027344 355.113281 1033.027344 355.113281 1041.132812 355.226562 C 1046.417969 355.113281 1051.699219 354.988281 1057.148438 354.988281 C 1062.207031 354.988281 1067.488281 354.988281 1072.773438 354.988281 C 1079.648438 355.113281 1079.648438 355.113281 1086.746094 355.113281 C 1102.148438 358.484375 1112.878906 367.3125 1126.269531 380.425781 C 1126.269531 391.457031 1126.269531 402.601562 1126.269531 413.984375 C 1149.746094 413.984375 1173.476562 413.984375 1197.792969 413.984375 C 1200 402.9375 1202.042969 391.792969 1204.277344 380.425781 C 1199.414062 454.476562 1199.414062 454.476562 1184.824219 492.339844 C 1181.386719 489.21875 1178.144531 486.046875 1174.679688 482.929688 C 1126.464844 441.46875 1081.074219 438.695312 1027.96875 434.859375 C 1018.242188 433.832031 1018.242188 433.832031 1008.515625 432.902344 C 1002.644531 432.433594 996.777344 431.976562 990.683594 431.636719 C 976.511719 425.128906 976.511719 425.128906 967.988281 402.257812 C 966.367188 395.039062 964.941406 387.855469 963.542969 380.425781 C 983.191406 357.679688 987.246094 355.113281 1009.550781 354.988281 Z M 1009.550781 354.988281 "/>
<path style=" stroke:none;fill-rule:nonzero;fill:rgb(40.000001%,40.000001%,40.000001%);fill-opacity:1;" d="M 266.867188 324.457031 C 270.917969 344.765625 270.917969 344.765625 273.351562 369.167969 C 252.5 420 228.183594 464.011719 195.339844 492.339844 C 193.105469 503.359375 191.09375 514.382812 188.855469 525.871094 C 184.414062 529.488281 180.136719 533.203125 175.691406 537.015625 C 173.847656 544.226562 172.03125 551.308594 170.019531 558.738281 C 162.722656 581.832031 162.722656 581.832031 150.371094 591.714844 C 133.9375 606.660156 129.296875 620.035156 120.351562 647.523438 C 108.222656 683.308594 95.449219 709.414062 78.203125 738.449219 C 68.28125 760.828125 58.75 783.609375 49.246094 806.71875 C 38.292969 829.550781 27.558594 845.347656 12.96875 861.5 C 8.71875 861.5 4.472656 861.5 0 861.5 C 8.496094 818.777344 17.832031 793.578125 37.089844 762.941406 C 58.75 726.84375 79.042969 689.695312 98.691406 650.320312 C 126.835938 594.496094 155.820312 540.164062 184.609375 485.378906 C 212.558594 432.433594 239.921875 378.914062 266.867188 324.457031 Z M 266.867188 324.457031 "/>
<path style=" stroke:none;fill-rule:nonzero;fill:rgb(16.470589%,16.470589%,16.470589%);fill-opacity:1;" d="M 507.792969 234.972656 C 507.792969 276.296875 501.53125 287.308594 487.335938 320.28125 C 467.683594 366.714844 449.433594 414.082031 432.019531 462.957031 C 428.976562 469.007812 426.152344 474.902344 423.105469 481.070312 C 416.621094 481.070312 410.332031 481.070312 403.652344 481.070312 C 389.257812 502.769531 389.257812 502.769531 377.519531 525.871094 C 373.242188 522.15625 368.996094 518.441406 364.550781 514.628906 C 368.996094 506.359375 373.464844 498.132812 378.105469 489.644531 C 414.609375 422.09375 449.65625 353.625 483.085938 281.730469 C 494.824219 257.378906 494.824219 257.378906 507.792969 234.972656 Z M 507.792969 234.972656 "/>
<path style=" stroke:none;fill-rule:nonzero;fill:rgb(58.823532%,58.823532%,58.823532%);fill-opacity:1;" d="M 410.136719 44.800781 C 412.371094 55.84375 414.386719 66.867188 416.621094 78.355469 C 410.527344 98.664062 410.527344 98.664062 401.640625 119.589844 C 398.59375 126.527344 395.742188 133.511719 392.695312 140.707031 C 389.871094 145.933594 387.050781 151.253906 384.003906 156.621094 C 379.726562 156.621094 375.480469 156.621094 371.035156 156.621094 C 369.21875 163.230469 367.597656 169.828125 365.753906 176.578125 C 348.144531 233.230469 319.746094 280.25 293.027344 324.457031 C 286.542969 320.742188 280.058594 317.027344 273.351562 313.3125 C 278.019531 304.617188 282.683594 295.921875 287.546875 287.097656 C 351.386719 169.617188 351.386719 169.617188 410.136719 44.800781 Z M 410.136719 44.800781 "/>
<path style=" stroke:none;fill-rule:nonzero;fill:rgb(76.47059%,76.47059%,76.47059%);fill-opacity:1;" d="M 1113.078125 369.167969 C 1117.546875 372.882812 1121.796875 376.597656 1126.269531 380.425781 C 1126.269531 391.457031 1126.269531 402.601562 1126.269531 413.984375 C 1149.746094 413.984375 1173.476562 413.984375 1197.792969 413.984375 C 1200 402.9375 1202.042969 391.792969 1204.277344 380.425781 C 1199.414062 454.476562 1199.414062 454.476562 1184.824219 492.339844 C 1181.164062 489.21875 1177.304688 486.046875 1173.476562 482.929688 C 1142.058594 457.523438 1115.3125 441.351562 1080.65625 436.371094 C 1080.65625 432.65625 1080.65625 428.941406 1080.65625 425.128906 C 1093.425781 425.128906 1106.394531 425.128906 1119.785156 425.128906 C 1117.546875 406.652344 1115.3125 388.203125 1113.078125 369.167969 Z M 1113.078125 369.167969 "/>
<path style=" stroke:none;fill-rule:nonzero;fill:rgb(77.254903%,77.254903%,77.254903%);fill-opacity:1;" d="M 1425.554688 369.167969 C 1427.792969 369.167969 1430 369.167969 1432.238281 369.167969 C 1432.65625 378.914062 1433.242188 388.546875 1433.855469 398.425781 C 1435.898438 434.292969 1438.105469 470.148438 1440.144531 506.023438 C 1441.152344 521.476562 1441.964844 537.015625 1442.773438 552.457031 C 1444.199219 574.863281 1445.402344 597.152344 1446.824219 619.441406 C 1447.636719 632.789062 1448.449219 646.261719 1449.0625 660.101562 C 1451.074219 694.21875 1451.074219 694.21875 1458.175781 727.171875 C 1454.933594 732.761719 1454.933594 732.761719 1451.691406 738.449219 C 1455.9375 745.746094 1460.214844 753.175781 1464.660156 760.828125 C 1456.132812 768.167969 1447.441406 775.597656 1438.722656 783.117188 C 1432.238281 736.34375 1430.8125 691.417969 1430 643.472656 C 1430 635.582031 1429.804688 627.6875 1429.609375 619.574219 C 1429.191406 594.597656 1428.796875 569.636719 1428.574219 544.683594 C 1428.183594 527.730469 1427.988281 510.789062 1427.570312 493.730469 C 1426.953125 452.273438 1426.367188 410.710938 1425.554688 369.167969 Z M 1425.554688 369.167969 "/>
<path style=" stroke:none;fill-rule:nonzero;fill:rgb(82.352942%,82.352942%,82.352942%);fill-opacity:1;" d="M 1016.816406 356.625 C 1022.714844 356.847656 1028.386719 356.96875 1034.453125 357.222656 C 1038.925781 357.5625 1043.371094 357.765625 1048.035156 358.023438 C 1038.308594 380.179688 1038.308594 380.179688 1028.582031 402.839844 C 1030.625 410.144531 1032.832031 417.574219 1035.066406 425.128906 C 1015.8125 425.128906 996.359375 425.128906 976.511719 425.128906 C 972.265625 410.367188 967.792969 395.632812 963.542969 380.425781 C 985.011719 355.6875 991.71875 355.484375 1016.816406 356.625 Z M 1016.816406 356.625 "/>
<path style=" stroke:none;fill-rule:nonzero;fill:rgb(52.156866%,52.156866%,52.156866%);fill-opacity:1;" d="M 410.136719 44.800781 C 412.371094 55.84375 414.386719 66.867188 416.621094 78.355469 C 410.527344 98.664062 410.527344 98.664062 401.640625 119.589844 C 398.59375 126.527344 395.742188 133.511719 392.695312 140.707031 C 389.871094 145.933594 387.050781 151.253906 384.003906 156.621094 C 379.726562 156.621094 375.480469 156.621094 371.035156 156.621094 C 366.757812 171.339844 362.511719 186.199219 358.066406 201.40625 C 351.582031 197.691406 345.097656 193.976562 338.613281 190.171875 C 344.679688 178.65625 344.679688 178.65625 350.964844 166.945312 C 356.25 156.828125 361.503906 146.734375 366.980469 136.394531 C 372.238281 126.304688 377.519531 116.300781 382.96875 106.09375 C 397.78125 78.355469 397.78125 78.355469 410.136719 44.800781 Z M 410.136719 44.800781 "/>
<path style=" stroke:none;fill-rule:nonzero;fill:rgb(61.960787%,61.960787%,61.960787%);fill-opacity:1;" d="M 65.039062 738.449219 C 65.039062 782.894531 56.125 795.320312 39.101562 827.953125 C 16.210938 861.5 16.210938 861.5 0 861.5 C 10.535156 807.386719 24.511719 774.667969 53.691406 746.804688 C 59.367188 742.625 59.367188 742.625 65.039062 738.449219 Z M 65.039062 738.449219 "/>
<path style=" stroke:none;fill-rule:nonzero;fill:rgb(54.11765%,54.11765%,54.11765%);fill-opacity:1;" d="M 117.109375 615.398438 C 121.386719 619.113281 125.832031 622.695312 130.300781 626.542969 C 110.847656 682.59375 88.347656 720.335938 58.554688 760.828125 C 54.308594 757.113281 50.058594 753.398438 45.585938 749.59375 C 69.09375 705.363281 92.792969 661.019531 117.109375 615.398438 Z M 117.109375 615.398438 "/>
<path style=" stroke:none;fill-rule:nonzero;fill:rgb(72.549021%,72.549021%,72.549021%);fill-opacity:1;" d="M 266.867188 324.457031 C 271.113281 344.675781 271.113281 344.675781 273.351562 369.167969 C 256.523438 410.367188 242.96875 440.925781 214.792969 458.660156 C 218.652344 417.796875 228.378906 396.683594 244.589844 366.371094 C 248.640625 358.484375 252.890625 350.59375 257.140625 342.480469 C 262.003906 333.53125 262.003906 333.53125 266.867188 324.457031 Z M 266.867188 324.457031 "/>
<path style=" stroke:none;fill-rule:nonzero;fill:rgb(76.862746%,76.862746%,76.862746%);fill-opacity:1;" d="M 1516.730469 246.117188 C 1527.460938 246.117188 1538.222656 246.117188 1549.375 246.117188 C 1556.863281 284.988281 1556.25 317.273438 1555.859375 358.023438 C 1549.375 361.738281 1542.890625 365.453125 1536.40625 369.167969 C 1536.40625 332.257812 1536.40625 295.328125 1536.40625 257.378906 C 1529.921875 253.664062 1523.4375 249.949219 1516.730469 246.117188 Z M 1516.730469 246.117188 "/>
<path style=" stroke:none;fill-rule:nonzero;fill:rgb(82.745099%,82.745099%,82.745099%);fill-opacity:1;" d="M 1471.144531 369.167969 C 1497.082031 369.167969 1522.820312 369.167969 1549.375 369.167969 C 1547.136719 380.3125 1545.097656 391.324219 1542.890625 402.839844 C 1514.910156 397.265625 1496.660156 391.113281 1471.144531 369.167969 Z M 1471.144531 369.167969 "/>
<path style=" stroke:none;fill-rule:nonzero;fill:rgb(90.980393%,90.980393%,91.764706%);fill-opacity:1;" d="M 1158.691406 246.117188 C 1174.679688 248.894531 1174.679688 248.894531 1191.308594 257.378906 C 1195.558594 268.40625 1199.804688 279.417969 1204.277344 290.898438 C 1192.929688 299.265625 1192.929688 299.265625 1178.339844 302.042969 C 1163.554688 280.347656 1163.554688 280.347656 1152.207031 257.378906 C 1154.414062 253.664062 1156.453125 249.949219 1158.691406 246.117188 Z M 1158.691406 246.117188 "/>
<path style=" stroke:none;fill-rule:nonzero;fill:rgb(81.568629%,81.568629%,81.568629%);fill-opacity:1;" d="M 1360.488281 727.171875 C 1384.21875 730.886719 1407.722656 734.601562 1432.238281 738.449219 C 1406.101562 760.828125 1406.101562 760.828125 1386.648438 771.972656 C 1380.164062 768.257812 1373.679688 764.542969 1366.972656 760.828125 C 1364.960938 749.683594 1362.726562 738.65625 1360.488281 727.171875 Z M 1360.488281 727.171875 "/>
<path style=" stroke:none;fill-rule:nonzero;fill:rgb(41.568628%,41.568628%,41.568628%);fill-opacity:1;" d="M 507.792969 234.972656 C 507.792969 272.917969 504.355469 280.46875 491.386719 309.730469 C 488.5625 316.699219 485.519531 323.648438 482.277344 330.84375 C 480.039062 336.195312 477.609375 341.421875 475.175781 346.878906 C 468.691406 343.164062 462.402344 339.449219 455.722656 335.601562 C 472.96875 302.414062 489.960938 269.203125 507.792969 234.972656 Z M 507.792969 234.972656 "/>
<path style=" stroke:none;fill-rule:nonzero;fill:rgb(90.196079%,90.196079%,90.196079%);fill-opacity:1;" d="M 338.613281 704.882812 C 342.863281 715.910156 347.109375 727.054688 351.582031 738.449219 C 349.347656 749.460938 347.304688 760.605469 345.097656 771.972656 C 332.128906 775.6875 319.160156 779.402344 305.996094 783.117188 C 313.261719 745.878906 321.984375 731.226562 338.613281 704.882812 Z M 338.613281 704.882812 "/>
<path style=" stroke:none;fill-rule:nonzero;fill:rgb(51.372552%,51.372552%,51.372552%);fill-opacity:1;" d="M 266.867188 324.457031 C 274.160156 366.371094 274.160156 366.371094 266.867188 391.570312 C 258.367188 387.855469 249.648438 384.265625 240.929688 380.425781 C 249.453125 361.976562 257.949219 343.5 266.867188 324.457031 Z M 266.867188 324.457031 "/>
</g>
</svg>
