<?xml version="1.0" encoding="UTF-8"?>
<svg version="1.1" xmlns="http://www.w3.org/2000/svg" width="192" height="192">
<path d="M0 0 C2.20816057 0.02086261 4.41633179 0.04062443 6.62451172 0.05932617 C19.84085782 0.20155236 33.05040349 0.56661612 46.25 1.25 C46.95574158 1.28457306 47.66148315 1.31914612 48.38861084 1.35476685 C56.01198754 1.74706215 63.48513875 2.53015483 70.9921875 3.88671875 C72.02014938 4.06905815 72.02014938 4.06905815 73.06887817 4.25508118 C77.87600221 5.18850221 77.87600221 5.18850221 80.125 7.4375 C81.15812215 14.08564925 81.29856521 20.67664894 81.328125 27.39453125 C81.33382507 28.4187468 81.33952515 29.44296234 81.34539795 30.49821472 C81.35479315 32.65382878 81.36135995 34.80945684 81.36523438 36.96508789 C81.37494125 40.23023951 81.40601822 43.49476118 81.4375 46.75976562 C81.50831751 60.34405783 80.86969799 72.23757365 74.5 84.5 C73.98167603 85.51114868 73.98167603 85.51114868 73.45288086 86.54272461 C65.45923135 101.58969963 53.69244021 110.97692106 38.125 117.4375 C35.155 117.9325 35.155 117.9325 32.125 118.4375 C32.125 127.6775 32.125 136.9175 32.125 146.4375 C36.78943264 147.29977554 36.78943264 147.29977554 41.45751953 148.1418457 C46.7450885 149.15934779 51.30762872 150.475185 55.03515625 154.5 C57.86458991 157.12317587 60.89468179 157.66306331 64.5625 158.4375 C69.63732618 159.51533919 73.23820511 160.8427764 77.125 164.4375 C76.9375 166.25 76.9375 166.25 76.125 168.4375 C59.0959322 180.56521249 29.23774154 177.79053651 9.54760742 177.75317383 C6.06202257 177.74999957 2.57727873 177.77364365 -0.90820312 177.79882812 C-45.77309264 177.9251802 -45.77309264 177.9251802 -56.703125 168.93359375 C-57.875 167.4375 -57.875 167.4375 -58 165.5 C-56.14205816 162.0937733 -53.35917724 160.80062778 -49.875 159.4375 C-45.24908747 158.19514478 -40.58601952 157.29313389 -35.875 156.4375 C-34.15796875 156.10878906 -34.15796875 156.10878906 -32.40625 155.7734375 C-24.29621272 154.29709576 -24.29621272 154.29709576 -20.875 155.4375 C-20.875 141.9075 -20.875 128.3775 -20.875 114.4375 C-23.845 113.4475 -26.815 112.4575 -29.875 111.4375 C-32.72265625 110.05078125 -32.72265625 110.05078125 -34.9375 108.75 C-35.69160156 108.31300781 -36.44570312 107.87601562 -37.22265625 107.42578125 C-37.76792969 107.09964844 -38.31320313 106.77351563 -38.875 106.4375 C-38.99875 107.00597656 -39.1225 107.57445313 -39.25 108.16015625 C-41.03158591 114.82996852 -43.99939961 118.76253961 -49.875 122.4375 C-53.5 123.625 -53.5 123.625 -56.875 123.4375 C-60.62169241 121.45811533 -62.52177369 119.96733947 -64.875 116.4375 C-64.61671113 111.70220401 -63.83889929 109.07247083 -60.875 105.4375 C-61.48384033 105.23705078 -62.09268066 105.03660156 -62.7199707 104.83007812 C-80.48301928 98.90178039 -95.21873243 92.40911966 -105.4375 75.6875 C-108.26994111 69.22271543 -107.93112255 61.45776759 -106.16796875 54.74609375 C-103.39020637 48.59756354 -98.77721341 46.27014902 -92.8125 43.53125 C-87.3716403 41.50539798 -82.62029025 41.24912983 -76.875 41.4375 C-76.215 41.7675 -75.555 42.0975 -74.875 42.4375 C-75.019375 41.58027344 -75.16375 40.72304688 -75.3125 39.83984375 C-75.498125 38.69644531 -75.68375 37.55304687 -75.875 36.375 C-76.060625 35.24964844 -76.24625 34.12429687 -76.4375 32.96484375 C-76.87756887 29.4167885 -76.94778916 26.00871813 -76.875 22.4375 C-68.63332747 17.52659996 -60.32551287 12.96999458 -51.5 9.1875 C-50.80801514 8.88328125 -50.11603027 8.5790625 -49.40307617 8.265625 C-46.91929706 7.23143677 -44.41602035 6.32287813 -41.875 5.4375 C-40.63057129 4.99849365 -39.38614258 4.5594873 -38.10400391 4.10717773 C-25.39927716 -0.05863046 -13.26932439 -0.22700224 0 0 Z M-87.875 62.4375 C-87.57452084 68.44708329 -84.98513457 72.26066953 -80.875 76.4375 C-74.77939207 81.10625307 -68.27769538 83.6322813 -60.875 85.4375 C-59.74191406 85.72173828 -59.74191406 85.72173828 -58.5859375 86.01171875 C-58.02132812 86.15222656 -57.45671875 86.29273437 -56.875 86.4375 C-58.90903436 81.29299288 -61.12786134 76.24176716 -63.375 71.1875 C-63.77847656 70.26453125 -64.18195313 69.3415625 -64.59765625 68.390625 C-65.18353516 67.07578125 -65.18353516 67.07578125 -65.78125 65.734375 C-66.13509766 64.93354492 -66.48894531 64.13271484 -66.85351562 63.30761719 C-67.73599208 61.26926063 -67.73599208 61.26926063 -69.875 60.4375 C-71.97648182 60.31422071 -74.08243907 60.26191994 -76.1875 60.25 C-77.31800781 60.23582031 -78.44851562 60.22164062 -79.61328125 60.20703125 C-82.80704843 60.43269863 -85.0026429 61.07407346 -87.875 62.4375 Z M-4.875 118.4375 C-5.51445162 129.46804052 -6.03723255 140.3876609 -5.875 151.4375 C1.11501647 152.53501783 8.09734063 153.61071655 15.125 154.4375 C16.30442085 150.89923745 16.23789189 148.09601274 16.22265625 144.36328125 C16.2212413 143.6794487 16.21982635 142.99561615 16.21836853 142.2910614 C16.21277876 140.11066278 16.20022822 137.93036749 16.1875 135.75 C16.18248367 134.27018378 16.177921 132.79036594 16.17382812 131.31054688 C16.1636643 127.68612624 16.1440871 124.06192856 16.125 120.4375 C9.195 119.7775 2.265 119.1175 -4.875 118.4375 Z " fill="#FCFCFC" transform="translate(110.875,8.5625)"/>
<path d="M0 0 C2.20816057 0.02086261 4.41633179 0.04062443 6.62451172 0.05932617 C19.84085782 0.20155236 33.05040349 0.56661612 46.25 1.25 C46.95574158 1.28457306 47.66148315 1.31914612 48.38861084 1.35476685 C56.01198754 1.74706215 63.48513875 2.53015483 70.9921875 3.88671875 C72.02014938 4.06905815 72.02014938 4.06905815 73.06887817 4.25508118 C77.87600221 5.18850221 77.87600221 5.18850221 80.125 7.4375 C81.15812215 14.08564925 81.29856521 20.67664894 81.328125 27.39453125 C81.33382507 28.4187468 81.33952515 29.44296234 81.34539795 30.49821472 C81.35479315 32.65382878 81.36135995 34.80945684 81.36523438 36.96508789 C81.37494125 40.23023951 81.40601822 43.49476118 81.4375 46.75976562 C81.50831751 60.34405783 80.86969799 72.23757365 74.5 84.5 C73.98167603 85.51114868 73.98167603 85.51114868 73.45288086 86.54272461 C65.45923135 101.58969963 53.69244021 110.97692106 38.125 117.4375 C35.155 117.9325 35.155 117.9325 32.125 118.4375 C32.125 127.6775 32.125 136.9175 32.125 146.4375 C36.78943264 147.29977554 36.78943264 147.29977554 41.45751953 148.1418457 C46.7450885 149.15934779 51.30762872 150.475185 55.03515625 154.5 C57.86458991 157.12317587 60.89468179 157.66306331 64.5625 158.4375 C69.63732618 159.51533919 73.23820511 160.8427764 77.125 164.4375 C76.9375 166.25 76.9375 166.25 76.125 168.4375 C59.0959322 180.56521249 29.23774154 177.79053651 9.54760742 177.75317383 C6.06202257 177.74999957 2.57727873 177.77364365 -0.90820312 177.79882812 C-45.77309264 177.9251802 -45.77309264 177.9251802 -56.703125 168.93359375 C-57.875 167.4375 -57.875 167.4375 -58 165.5 C-56.14205816 162.0937733 -53.35917724 160.80062778 -49.875 159.4375 C-45.24908747 158.19514478 -40.58601952 157.29313389 -35.875 156.4375 C-34.15796875 156.10878906 -34.15796875 156.10878906 -32.40625 155.7734375 C-24.29621272 154.29709576 -24.29621272 154.29709576 -20.875 155.4375 C-20.875 141.9075 -20.875 128.3775 -20.875 114.4375 C-23.845 113.4475 -26.815 112.4575 -29.875 111.4375 C-32.72265625 110.05078125 -32.72265625 110.05078125 -34.9375 108.75 C-35.69160156 108.31300781 -36.44570312 107.87601562 -37.22265625 107.42578125 C-37.76792969 107.09964844 -38.31320313 106.77351563 -38.875 106.4375 C-38.99875 107.00597656 -39.1225 107.57445313 -39.25 108.16015625 C-41.03158591 114.82996852 -43.99939961 118.76253961 -49.875 122.4375 C-53.5 123.625 -53.5 123.625 -56.875 123.4375 C-60.62169241 121.45811533 -62.52177369 119.96733947 -64.875 116.4375 C-64.61671113 111.70220401 -63.83889929 109.07247083 -60.875 105.4375 C-61.48384033 105.23705078 -62.09268066 105.03660156 -62.7199707 104.83007812 C-80.48301928 98.90178039 -95.21873243 92.40911966 -105.4375 75.6875 C-108.26994111 69.22271543 -107.93112255 61.45776759 -106.16796875 54.74609375 C-103.39020637 48.59756354 -98.77721341 46.27014902 -92.8125 43.53125 C-87.3716403 41.50539798 -82.62029025 41.24912983 -76.875 41.4375 C-76.215 41.7675 -75.555 42.0975 -74.875 42.4375 C-75.019375 41.58027344 -75.16375 40.72304688 -75.3125 39.83984375 C-75.498125 38.69644531 -75.68375 37.55304687 -75.875 36.375 C-76.060625 35.24964844 -76.24625 34.12429687 -76.4375 32.96484375 C-76.87756887 29.4167885 -76.94778916 26.00871813 -76.875 22.4375 C-68.63332747 17.52659996 -60.32551287 12.96999458 -51.5 9.1875 C-50.80801514 8.88328125 -50.11603027 8.5790625 -49.40307617 8.265625 C-46.91929706 7.23143677 -44.41602035 6.32287813 -41.875 5.4375 C-40.63057129 4.99849365 -39.38614258 4.5594873 -38.10400391 4.10717773 C-25.39927716 -0.05863046 -13.26932439 -0.22700224 0 0 Z M-36.875 7.4375 C-37.54740723 7.65180664 -38.21981445 7.86611328 -38.91259766 8.08691406 C-57.30212133 13.93071067 -57.30212133 13.93071067 -72.875 24.4375 C-73.2423056 28.48971016 -72.49311652 32.427534 -71.875 36.4375 C-71.75318359 37.52804688 -71.75318359 37.52804688 -71.62890625 38.640625 C-71.34775215 40.70930586 -71.34775215 40.70930586 -69.875 43.4375 C-67.85892284 44.57994372 -65.79786313 45.4436741 -63.6640625 46.34375 C-61.875 47.4375 -61.875 47.4375 -60.6875 50.9375 C-60.89711776 54.85036484 -61.63553878 55.4515517 -63.875 58.4375 C-62.64730009 74.43657346 -51.43553814 90.91829278 -39.875 101.4375 C-33.56695735 106.00565726 -27.46077806 109.52672467 -19.875 111.4375 C-19.875 109.7875 -19.875 108.1375 -19.875 106.4375 C-18.885 106.4375 -17.895 106.4375 -16.875 106.4375 C-16.875 120.2975 -16.875 134.1575 -16.875 148.4375 C-14.895 148.4375 -12.915 148.4375 -10.875 148.4375 C-10.875 149.0975 -10.875 149.7575 -10.875 150.4375 C-12.855 150.7675 -14.835 151.0975 -16.875 151.4375 C-17.06835938 152.02917969 -17.26171875 152.62085938 -17.4609375 153.23046875 C-18.81914719 157.3521645 -20.19550585 161.4325524 -21.875 165.4375 C-18.23596139 167.92758511 -15.81939631 168.8149141 -11.41796875 168.80078125 C-10.38736328 168.80013672 -9.35675781 168.79949219 -8.29492188 168.79882812 C-6.69487305 168.7746582 -6.69487305 168.7746582 -5.0625 168.75 C-4.00740234 168.75322266 -2.95230469 168.75644531 -1.86523438 168.75976562 C4.75819271 168.71437142 11.08729609 168.45635196 17.125 165.4375 C16.77639008 162.80043464 16.45302803 161.70794089 14.3671875 159.98828125 C9.01377624 157.18789945 4.27310458 156.04866777 -1.7421875 155.79296875 C-2.43111084 155.75570679 -3.12003418 155.71844482 -3.82983398 155.68005371 C-5.51110842 155.59037602 -7.19301542 155.51269115 -8.875 155.4375 C-8.8998966 150.33292996 -8.91795235 145.22839603 -8.92993164 140.1237793 C-8.93493075 138.39070011 -8.94173224 136.65762507 -8.95043945 134.92456055 C-8.96270027 132.41974862 -8.96827266 129.91499292 -8.97265625 127.41015625 C-8.98039818 126.26583885 -8.98039818 126.26583885 -8.98829651 125.09840393 C-8.98940984 114.18944693 -8.98940984 114.18944693 -7.875 109.4375 C-7.215 109.1075 -6.555 108.7775 -5.875 108.4375 C-5.875 110.7475 -5.875 113.0575 -5.875 115.4375 C14.52538973 119.78628325 35.58526926 116.56801253 53.125 105.4375 C55.73801022 103.63829784 57.94217913 101.73716286 60.125 99.4375 C60.76824219 98.76589844 61.41148437 98.09429687 62.07421875 97.40234375 C75.72556875 81.82680346 79.86748714 60.57656111 79.59155273 40.43334961 C79.56228411 38.10784662 79.57107377 35.78459817 79.58398438 33.45898438 C79.56975274 24.7183311 78.81295901 16.83929186 76.125 8.4375 C60.6361776 5.30027355 45.22816662 4.89098813 29.49169922 4.53466797 C25.64464621 4.42363627 21.8361537 4.17905996 18 3.875 C-0.40765098 2.6586354 -19.13501164 1.70873502 -36.875 7.4375 Z M-87.875 62.4375 C-87.57452084 68.44708329 -84.98513457 72.26066953 -80.875 76.4375 C-74.77939207 81.10625307 -68.27769538 83.6322813 -60.875 85.4375 C-59.74191406 85.72173828 -59.74191406 85.72173828 -58.5859375 86.01171875 C-58.02132812 86.15222656 -57.45671875 86.29273437 -56.875 86.4375 C-58.90903436 81.29299288 -61.12786134 76.24176716 -63.375 71.1875 C-63.77847656 70.26453125 -64.18195313 69.3415625 -64.59765625 68.390625 C-65.18353516 67.07578125 -65.18353516 67.07578125 -65.78125 65.734375 C-66.13509766 64.93354492 -66.48894531 64.13271484 -66.85351562 63.30761719 C-67.73599208 61.26926063 -67.73599208 61.26926063 -69.875 60.4375 C-71.97648182 60.31422071 -74.08243907 60.26191994 -76.1875 60.25 C-77.31800781 60.23582031 -78.44851562 60.22164062 -79.61328125 60.20703125 C-82.80704843 60.43269863 -85.0026429 61.07407346 -87.875 62.4375 Z M-4.875 118.4375 C-5.51445162 129.46804052 -6.03723255 140.3876609 -5.875 151.4375 C1.11501647 152.53501783 8.09734063 153.61071655 15.125 154.4375 C16.30442085 150.89923745 16.23789189 148.09601274 16.22265625 144.36328125 C16.2212413 143.6794487 16.21982635 142.99561615 16.21836853 142.2910614 C16.21277876 140.11066278 16.20022822 137.93036749 16.1875 135.75 C16.18248367 134.27018378 16.177921 132.79036594 16.17382812 131.31054688 C16.1636643 127.68612624 16.1440871 124.06192856 16.125 120.4375 C9.195 119.7775 2.265 119.1175 -4.875 118.4375 Z " fill="#080808" transform="translate(110.875,8.5625)"/>
<path d="M0 0 C0.92876953 -0.01611328 1.85753906 -0.03222656 2.81445312 -0.04882812 C8.17646271 -0.0526445 11.89683225 0.36043309 16.5625 3.3125 C16.30688677 5.6556213 15.96979228 7.99093403 15.5625 10.3125 C13.11900431 11.53424785 11.63799559 11.38322748 8.9140625 11.3046875 C7.99109375 11.28792969 7.068125 11.27117187 6.1171875 11.25390625 C4.17167761 11.20980803 2.2263304 11.15778642 0.28125 11.09765625 C-0.64429687 11.08347656 -1.56984375 11.06929687 -2.5234375 11.0546875 C-3.3695459 11.0326123 -4.2156543 11.01053711 -5.08740234 10.98779297 C-7.94768815 11.3829914 -9.23192344 12.51213815 -11.4375 14.3125 C-12.0975 14.3125 -12.7575 14.3125 -13.4375 14.3125 C-11.54807826 22.93186204 -8.27064963 29.61559338 -1.14453125 35.06640625 C5.90088412 39.5355966 13.63235614 42.57673808 21.8125 44.1875 C27.69429746 45.95203924 31.15098254 49.1724574 34.5 54.25 C35.82595415 58.07186785 36.25592646 60.29062653 35.5625 64.3125 C32.74610084 68.96495879 30.03954667 71.84476855 24.8125 73.5 C21.5625 73.3125 21.5625 73.3125 19.625 72.1875 C18.20183009 69.67602369 18.13575484 68.15746772 18.5625 65.3125 C19.5625 64.3125 20.5625 63.3125 21.5625 62.3125 C21.81319913 59.68679296 21.81319913 59.68679296 21.5625 57.3125 C16.89255954 54.85960198 12.39851317 52.82101382 7.37280273 51.2355957 C-5.82098527 47.05212549 -15.38967726 40.571119 -22.4375 28.3125 C-24.5694753 22.9021758 -25.19771485 18.07511624 -24.4375 12.3125 C-21.88991975 7.2173395 -18.42057193 3.93171609 -13.4296875 1.22265625 C-8.96588563 -0.13513205 -4.63944315 -0.01603125 0 0 Z " fill="#F7F7F7" transform="translate(31.4375,54.6875)"/>
<path d="M0 0 C2.97936059 1.7137379 3.40736663 2.75574684 5 6 C4.875 9.5625 4.875 9.5625 4 13 C2.58273021 18.82655356 2.09013369 25.27040108 4 31 C10.21009543 34.10504772 21.41747022 32.82777473 28.0234375 31.09375 C34.15524007 29.01877993 39.42058443 26.5601776 44.3515625 22.33203125 C46 21 46 21 48.1484375 19.9453125 C50.55420057 18.71705372 50.84143659 17.38953703 52 15 C54.125 13.25 54.125 13.25 56 12 C55.19819516 18.62360517 51.03844417 21.98980974 46 26 C35.70739957 32.47654492 25.78464018 35.35175094 13.6875 35.3125 C12.70587891 35.32861328 11.72425781 35.34472656 10.71289062 35.36132812 C-1.71171685 35.3695509 -14.12905634 31.24185633 -23.40625 22.73046875 C-28.39811076 17.31038464 -34 9.60404513 -34 2 C-31 3 -31 3 -29.90234375 4.890625 C-29.58394531 5.66921875 -29.26554687 6.4478125 -28.9375 7.25 C-28.60105469 8.05824219 -28.26460938 8.86648437 -27.91796875 9.69921875 C-27.61503906 10.45847656 -27.31210938 11.21773437 -27 12 C-26.5875 13.010625 -26.175 14.02125 -25.75 15.0625 C-25.5025 15.701875 -25.255 16.34125 -25 17 C-24.34 17 -23.68 17 -23 17 C-22.9175 15.96875 -22.835 14.9375 -22.75 13.875 C-21.69098039 8.4033987 -19.49847816 5.42355425 -15.5 1.625 C-10.34423432 -0.76874835 -5.58136942 -1.02117234 0 0 Z " fill="#111111" transform="translate(107,76)"/>
<path d="M0 0 C2.23044335 0.0251505 4.46091447 0.04795157 6.69140625 0.06835938 C12.08655694 0.12273411 17.48064306 0.20580896 22.875 0.3125 C22.875 1.64583333 22.875 2.97916667 22.875 4.3125 C21.66666504 4.29155273 20.45833008 4.27060547 19.21337891 4.24902344 C14.63977373 4.17546938 10.0662182 4.13029009 5.4921875 4.09277344 C3.52953237 4.07291629 1.56693427 4.04582125 -0.39550781 4.01074219 C-26.27315541 3.56046582 -51.33969224 9.7889615 -73.125 24.3125 C-72.79620668 34.07620557 -72.79620668 34.07620557 -70.125 43.3125 C-66.68516568 45.12015878 -66.68516568 45.12015878 -63.125 46.3125 C-60.55812633 50.1628105 -61.29211276 51.89819763 -62.125 56.3125 C-63.115 56.3125 -64.105 56.3125 -65.125 56.3125 C-65.125 54.0025 -65.125 51.6925 -65.125 49.3125 C-70.06200829 46.71407458 -74.99954919 46.9450896 -80.4375 46.9375 C-81.34951172 46.91300781 -82.26152344 46.88851562 -83.20117188 46.86328125 C-89.34449483 46.83685836 -94.0196918 47.77187136 -99.125 51.3125 C-103.57602841 56.10591521 -104.48514604 59.19566669 -104.40234375 65.58984375 C-103.54656442 73.99094503 -98.21869012 81.35816954 -92.2890625 87.0859375 C-85.63076474 92.3981534 -77.76598806 94.8695212 -69.79296875 97.56054688 C-68.86355469 97.87572266 -67.93414062 98.19089844 -66.9765625 98.515625 C-66.13947754 98.79051758 -65.30239258 99.06541016 -64.43994141 99.34863281 C-61.96281369 100.38002916 -60.12650348 101.52813805 -58.125 103.3125 C-58.125 103.9725 -58.125 104.6325 -58.125 105.3125 C-61.125 106.3125 -61.125 106.3125 -62.82421875 105.74609375 C-63.48035156 105.41738281 -64.13648438 105.08867188 -64.8125 104.75 C-67.80679752 103.3164556 -70.78134619 102.05453893 -73.921875 100.98828125 C-87.80348874 96.25120748 -98.82828917 88.41051532 -106.625 75.625 C-109.5179622 69.13853767 -109.19248011 61.37600162 -107.41796875 54.62109375 C-104.64020637 48.47256354 -100.02721341 46.14514902 -94.0625 43.40625 C-88.6216403 41.38039798 -83.87029025 41.12412983 -78.125 41.3125 C-77.465 41.6425 -76.805 41.9725 -76.125 42.3125 C-76.269375 41.45527344 -76.41375 40.59804688 -76.5625 39.71484375 C-76.748125 38.57144531 -76.93375 37.42804687 -77.125 36.25 C-77.310625 35.12464844 -77.49625 33.99929687 -77.6875 32.83984375 C-78.12756887 29.2917885 -78.19778916 25.88371813 -78.125 22.3125 C-69.88332747 17.40159996 -61.57551287 12.84499458 -52.75 9.0625 C-52.05801514 8.75828125 -51.36603027 8.4540625 -50.65307617 8.140625 C-48.16959115 7.10655922 -45.6650855 6.19946326 -43.125 5.3125 C-41.89507324 4.87204346 -40.66514648 4.43158691 -39.39794922 3.9777832 C-26.30738224 -0.36506391 -13.67108579 -0.27137361 0 0 Z " fill="#0B0B0B" transform="translate(112.125,8.6875)"/>
<path d="M0 0 C1.9375 0.375 1.9375 0.375 4 1 C5.51516221 4.03032442 5.17028053 6.65114962 5 10 C4.67 10.804375 4.34 11.60875 4 12.4375 C2.21719056 17.00594919 2.46265309 21.38795928 4 26 C4.33 26.66 4.66 27.32 5 28 C4.835 27.319375 4.67 26.63875 4.5 25.9375 C3.73740535 21.45725642 3.46182836 17.51360773 5 13.1875 C6.38535348 8.77168579 6.16330722 4.59074727 6 0 C10.83766699 0.41465717 12.85646376 2.4198615 16 6 C18.0818651 10.16373021 17.32725118 15.45418359 17 20 C15.17150905 25.38923649 12.07783589 28.46108206 7 31 C3.32831394 31.40796512 1.50635197 31.30616631 -1.6875 29.375 C-6.14584797 24.79615614 -7.25317754 20.93140053 -7.625 14.625 C-7.54455004 9.60837036 -6.82773638 6.96656904 -3.5 3.1875 C-2.36297425 2.09333831 -1.20565677 1.01804181 0 0 Z " fill="#080808" transform="translate(153,32)"/>
<path d="M0 0 C3 1 3 1 4 3 C3.9140625 5.05859375 3.9140625 5.05859375 3.625 7.4375 C3.53476563 8.21996094 3.44453125 9.00242187 3.3515625 9.80859375 C3 12 3 12 2 15 C1.90752619 16.47686111 1.87000929 17.95775501 1.875 19.4375 C1.87242188 20.19933594 1.86984375 20.96117188 1.8671875 21.74609375 C1.99723985 23.95315859 2.39143801 25.87969276 3 28 C3.66 28 4.32 28 5 28 C4.67 27.01 4.34 26.02 4 25 C3.70256609 19.83864684 3.98854315 15.05728425 5 10 C5.08789945 6.66499131 5.05828815 3.33537753 5 0 C8.82561437 0.26083734 10.52732694 0.51419714 13.25 3.3125 C13.8275 4.199375 14.405 5.08625 15 6 C15.4125 6.598125 15.825 7.19625 16.25 7.8125 C18.41415814 14.1246279 16.86830201 19.18416415 14.265625 25.01953125 C12.75416499 27.38468626 11.42255644 28.58138587 9 30 C5.59744386 30.66391339 2.41233359 30.59729664 -1 30 C-4.40651555 27.44511334 -6.40072756 24.90778744 -8 21 C-8.67002222 15.40609357 -8.75476125 10.53647826 -6.25 5.4375 C-2.49246231 1.36683417 -2.49246231 1.36683417 0 0 Z " fill="#060606" transform="translate(87,34)"/>
<path d="M0 0 C0.33 1.65 0.66 3.3 1 5 C1.96679688 5.01417969 2.93359375 5.02835938 3.9296875 5.04296875 C11.91124737 5.33536253 19.53056951 5.66631397 26 11 C26.7578125 13.16796875 26.7578125 13.16796875 27 15 C20.28542404 18.87379383 12.449524 18.21386278 4.9375 18.25 C3.32391602 18.2809375 3.32391602 18.2809375 1.67773438 18.3125 C0.63810547 18.31765625 -0.40152344 18.3228125 -1.47265625 18.328125 C-2.41375244 18.3374707 -3.35484863 18.34681641 -4.32446289 18.35644531 C-7.48576219 17.9352849 -9.3926323 16.79044173 -12 15 C-11.731875 14.360625 -11.46375 13.72125 -11.1875 13.0625 C-10.00675812 10.15426012 -10.00675812 10.15426012 -9.33984375 7.69921875 C-9.10394531 6.89097656 -8.86804688 6.08273438 -8.625 5.25 C-8.41101563 4.47140625 -8.19703125 3.6928125 -7.9765625 2.890625 C-7 1 -7 1 -5.0859375 0.234375 C-3 0 -3 0 0 0 Z " fill="#F4F4F4" transform="translate(101,159)"/>
<path d="M0 0 C2.31 0 4.62 0 7 0 C7.33 1.32 7.66 2.64 8 4 C9.30195313 4.17015625 10.60390625 4.3403125 11.9453125 4.515625 C13.67198891 4.75961188 15.39854539 5.00444854 17.125 5.25 C17.9809375 5.35957031 18.836875 5.46914062 19.71875 5.58203125 C25.17017405 6.37877784 28.66957638 7.56405732 33 11 C32.75 13.375 32.75 13.375 32 16 C26.98708889 19.42307484 20.37533595 18.49253913 14.5625 18.5625 C12.72075195 18.63694336 12.72075195 18.63694336 10.84179688 18.71289062 C1.99900763 18.81397858 1.99900763 18.81397858 -0.96142578 16.40185547 C-2.34765625 14.46484375 -2.34765625 14.46484375 -4 11 C-3.525625 10.113125 -3.05125 9.22625 -2.5625 8.3125 C-1.20262851 5.42957244 -0.45939614 3.12389377 0 0 Z " fill="#F3F3F3" transform="translate(131,155)"/>
<path d="M0 0 C1.75 1.32421875 1.75 1.32421875 3 3 C3.36183044 6.7630366 3.13294918 9.5762245 2 13.1875 C0.61276911 18.47631778 0.83932266 23.56374991 1 29 C-3.11704694 28.27758802 -6.30487372 26.97646289 -10 25 C-9.61020794 18.44074057 -8.57886807 13.05473373 -6 7 C-9.62045866 10.53143099 -10.97698229 13.13767382 -11.5 18.1875 C-11.665 19.445625 -11.83 20.70375 -12 22 C-12.66 22.33 -13.32 22.66 -14 23 C-16.5 21.5625 -16.5 21.5625 -19 19 C-20.05503375 14.40493566 -19.43384364 10.88437357 -17.375 6.6875 C-12.41338446 1.07304031 -7.51388531 -1.58865004 0 0 Z " fill="#F4F4F4" transform="translate(106,78)"/>
<path d="M0 0 C3 1 3 1 4.09765625 2.890625 C4.41605469 3.66921875 4.73445313 4.4478125 5.0625 5.25 C5.39894531 6.05824219 5.73539062 6.86648437 6.08203125 7.69921875 C6.38496094 8.45847656 6.68789062 9.21773437 7 10 C7.4125 11.010625 7.825 12.02125 8.25 13.0625 C8.4975 13.701875 8.745 14.34125 9 15 C10.32 14.67 11.64 14.34 13 14 C13.3403125 15.1446875 13.3403125 15.1446875 13.6875 16.3125 C15.26731682 19.54736301 16.83282717 20.41641358 20 22 C20.16435547 21.00419922 20.16435547 21.00419922 20.33203125 19.98828125 C21.98823529 10.76470588 21.98823529 10.76470588 25 7 C25.66 7 26.32 7 27 7 C26.47338621 9.89637582 25.80860399 12.61922239 24.9375 15.4375 C24.04877204 18.81466623 23.83084256 21.53227244 24 25 C26.31 25.99 28.62 26.98 31 28 C31 28.99 31 29.98 31 31 C21.64965134 29.45270031 13.14220946 24.34384097 7.34375 16.86328125 C0 6.26164216 0 6.26164216 0 0 Z " fill="#121212" transform="translate(73,78)"/>
<path d="M0 0 C0 7.59 0 15.18 0 23 C-2.31 23.33 -4.62 23.66 -7 24 C-7.11604679 20.5627834 -7.18719508 17.12606914 -7.25 13.6875 C-7.28351563 12.71103516 -7.31703125 11.73457031 -7.3515625 10.72851562 C-7.36445313 9.79072266 -7.37734375 8.85292969 -7.390625 7.88671875 C-7.41157227 7.02264404 -7.43251953 6.15856934 -7.45410156 5.26831055 C-7 3 -7 3 -5.16308594 1.19458008 C-3 0 -3 0 0 0 Z " fill="#E8E8E8" transform="translate(138,128)"/>
<path d="M0 0 C15.84 0 31.68 0 48 0 C48 1.33333333 48 2.66666667 48 4 C32.49 4 16.98 4 1 4 C0.67 2.68 0.34 1.36 0 0 Z " fill="#050505" transform="translate(87,9)"/>
<path d="M0 0 C2.97936059 1.7137379 3.40736663 2.75574684 5 6 C4.875 9.5625 4.875 9.5625 4 13 C3.814375 13.969375 3.62875 14.93875 3.4375 15.9375 C3.2209375 16.9584375 3.2209375 16.9584375 3 18 C2.67 17.34 2.34 16.68 2 16 C1.34 16 0.68 16 0 16 C0.165 15.484375 0.33 14.96875 0.5 14.4375 C1.15934906 11.22317332 1.18175217 8.27153915 1 5 C-1.37160148 2.62839852 -2.00621122 2.68016648 -5.25 2.625 C-9.87619705 2.73656424 -12.4703633 3.89055814 -16 7 C-19.29690949 11.09271523 -19.56872624 14.91096969 -20 20 C-21.5625 18.9375 -21.5625 18.9375 -23 17 C-22.89746364 11.56557269 -21.42968081 8.17123342 -18 4 C-12.81884191 -0.92210019 -6.80265877 -1.24462053 0 0 Z " fill="#202020" transform="translate(107,76)"/>
<path d="M0 0 C0.495 1.485 0.495 1.485 1 3 C-5.15220332 12.78096054 -15.34116498 18.43284321 -26 22 C-27.99228138 22.3767307 -29.99144288 22.72285488 -32 23 C-31.505 21.515 -31.505 21.515 -31 20 C-28.12109375 18.82421875 -28.12109375 18.82421875 -24.4375 17.6875 C-19.15226354 15.96306259 -14.88984052 13.9688904 -10.6484375 10.33203125 C-9 9 -9 9 -6.85546875 7.9453125 C-4.44265222 6.71604598 -4.10130129 5.42286285 -3 3 C-1.375 1.25 -1.375 1.25 0 0 Z " fill="#1B1B1B" transform="translate(162,88)"/>
<path d="M0 0 C0.33 0 0.66 0 1 0 C1.18368548 5.32687887 0.72572032 8.93069656 -1 14 C-1.24038021 18.4870972 -0.85944721 22.59533304 0 27 C-3.18666368 24.09043751 -3.90907016 21.98204232 -4.3125 17.625 C-4.27804961 11.49283001 -1.96038725 5.74113409 0 0 Z " fill="#DADADA" transform="translate(159,34)"/>
<path d="M0 0 C3.65316671 1.24976756 4.78065836 1.67098753 7 5 C6.625 8.6875 6.625 8.6875 6 12 C5.01 12 4.02 12 3 12 C3 9.69 3 7.38 3 5 C0.525 4.01 0.525 4.01 -2 3 C-1.34 2.67 -0.68 2.34 0 2 C0 1.34 0 0.68 0 0 Z " fill="#232323" transform="translate(44,53)"/>
<path d="M0 0 C0.99 0.33 1.98 0.66 3 1 C3 5.95 3 10.9 3 16 C2.34 16 1.68 16 1 16 C-0.72327319 13.0098145 -1.25156728 10.87966022 -1.1875 7.4375 C-1.18105469 6.67308594 -1.17460938 5.90867187 -1.16796875 5.12109375 C-1 3 -1 3 0 0 Z " fill="#ACACAC" transform="translate(89,46)"/>
<path d="M0 0 C0.66 0.33 1.32 0.66 2 1 C1.2884375 2.485 1.2884375 2.485 0.5625 4 C-1.16813748 7.99189495 -1.62115314 11.68114582 -2 16 C-3.5625 14.9375 -3.5625 14.9375 -5 13 C-4.89470715 7.41947915 -3.25223599 4.30134438 0 0 Z " fill="#1F1F1F" transform="translate(89,80)"/>
<path d="M0 0 C0 0.33 0 0.66 0 1 C-0.58007812 1.17015625 -1.16015625 1.3403125 -1.7578125 1.515625 C-6.80356871 3.08097511 -10.75955006 4.84684491 -15 8 C-11.69336055 0.28450794 -7.88453575 -0.60650275 0 0 Z " fill="#0E0E0E" transform="translate(104,76)"/>
<path d="M0 0 C0.33 0 0.66 0 1 0 C1.36552803 1.41377782 1.71695495 2.83120576 2.0625 4.25 C2.25972656 5.03890625 2.45695313 5.8278125 2.66015625 6.640625 C3.01497267 9.10394822 2.76877544 10.65604132 2 13 C-0.40385693 8.79325038 -1.45226612 5.86186074 -1 1 C-0.67 0.67 -0.34 0.34 0 0 Z " fill="#E5E5E5" transform="translate(156,48)"/>
<path d="M0 0 C0.66 0 1.32 0 2 0 C2.28571429 8.57142857 2.28571429 8.57142857 0 12 C-0.33 12 -0.66 12 -1 12 C-0.67 8.04 -0.34 4.08 0 0 Z " fill="#E8E8E8" transform="translate(91,36)"/>
<path d="M0 0 C0.99 0.33 1.98 0.66 3 1 C4.1875 4.5625 4.1875 4.5625 5 8 C4.01 8 3.02 8 2 8 C0.74335022 5.09399739 0 3.20395416 0 0 Z " fill="#242424" transform="translate(73,78)"/>
<path d="M0 0 C-0.33 0.66 -0.66 1.32 -1 2 C-3.06640625 2.6328125 -3.06640625 2.6328125 -5.5625 3.125 C-6.38878906 3.29257813 -7.21507812 3.46015625 -8.06640625 3.6328125 C-8.70449219 3.75398438 -9.34257812 3.87515625 -10 4 C-9.67 3.01 -9.34 2.02 -9 1 C-2.63157895 -1.31578947 -2.63157895 -1.31578947 0 0 Z " fill="#202020" transform="translate(140,107)"/>
<path d="M0 0 C0 2.97 0 5.94 0 9 C-3 6 -3 6 -3.1875 3.3125 C-3.125625 2.549375 -3.06375 1.78625 -3 1 C-1 0 -1 0 0 0 Z " fill="#3A3A3A" transform="translate(87,87)"/>
<path d="M0 0 C0.33 0 0.66 0 1 0 C1.66 3.96 2.32 7.92 3 12 C2.34 12 1.68 12 1 12 C-0.26237731 9.47524538 -0.09856404 7.68799534 -0.0625 4.875 C-0.05347656 3.96492188 -0.04445313 3.05484375 -0.03515625 2.1171875 C-0.02355469 1.41851562 -0.01195313 0.71984375 0 0 Z " fill="#F0F0F0" transform="translate(89,50)"/>
<path d="M0 0 C2 1 2 1 2 1 Z " fill="#FFFFFF" transform="translate(147,129)"/>
<path d="" fill="#FFFFFF" transform="translate(0,0)"/>
</svg>
